<svg version="1.0" viewBox="0 0 1280 171" xmlns="http://www.w3.org/2000/svg"><path d="M1191 78c-7-23-12-43-32-54 4 9 13 17 13 27l-2 13c-1 8-2 11-6 17-7 14-12 27-16 41 0-6 0-14 3-17s3-4-1-3l-2 1c-2-29-1-51 3-78-1-1-10 14-11 16-2 14 4 32-2 54 0-4 0-12-2-3 0 3-2 1-3-3-2-6-9-20-12-23-5-3-9-4-9-9 0-3 1-8-3-6l-7 7c-5 6-7 7-11 7-12 4-14 10-20 20 1-17 0-28-3-27-4 0-1-11-4-15v6c0 16-2 31-4 47l-5-28c6-46 11-52 1-37l-6 9-1 16-10-12 6 13c-2 5-5 9-9 13-7-8-18-9-26-10 11 3 23 13 18 21l-9 18-1-4c-2-7-3-5-3 5s-3 24-4 20l-3-79c-3-17-4-16-4 2l-4 58c0 3-1 2-4-7-5-16-17-33-27-41-3-2-3-2 1 3l9 17-5 23c-2-3-4-7-7-5l-3 6 5-2c2 12-13 28-18 41-2-13 0-38 11-43l4-2c-7-1-13 3-18 6 0-7-2-13-4-19-1-2 0-17-4 33l-7-18 6-18c8-13-6 9-9 12-7-12-1-29 0-36-6 7-9 13-12 21l-4-3c-2-2-2-2-1 1 3 4 1 8 1 13 1 2 0 4-1 1-3 9-3 13-3 24l-4-8c-6-10-7-9-15-13l3-7c3-6 1-7-2 0-6 1 13-32 12-32-12 11-19 23-25 37l-7-7-3-56c-6 32-8 65-6 97l-10-29-4-10 5-8-6 6c-4-3-5-9-7-13-1-6-3-9-5-7-5 3-7-8-7-5l-2 1-4-4c-4-3 3 6 6 10v12c0 11 0 12-2 10-3-3-4-2-1 1l3 5c-1 3-2 1-3-1v8c1 10 0 11-3 2-3-8-3-9 2-11h-3c-7 1-10 3-10-3l-5-17-2 31c-1 3-2 6-12-23 3-3 3-6 4-9l-5 4c-5-16-8-30-10-7-4-3-8-8-4-1 4 6 6 19 3 24-2 4-2 4-3-1-6-13 0 14-6 25V75c1-1 0 0-1-2-1-7-12 21-13 10l-13-12c7 8 8 12 2 18 0 4 3 10 0 12-1-8-4-15-6-23 0 4 1 17-2 14-3-8-2-12-3-22l7-11-7 7v-9c0-11-1-9-4 4-1 5-3 19-9 16-1-1-1-1 0 0-1 6-5 7-11 11l-1-18c-2 8-5 16-5 24l-20-19c7 8 12 19 17 27l-7 10-2-4c-8-11-12-16-12-26-1-7-5-16 2-18 2-1 10-1 10-4-16 1-16 2-17-6-3-4 1 9-3 9-4-1-5 3-7 6 7-8 1 5-2 6l-2 8c-3 8-8 1-6 5 3 2 1 8-1 5l-1-16-4 10c-4-21-3-40-3-61-4-4-10-19-10-15 2 9 2 19 2 28-5 8-6 11-7 18-1 14-3 4-5-3l-1 17c-2 1-2 1-3-1-6-5-10-4-17-6l-2-34-6 53c-5 1-18-2-5 1l5 2c0 5 2 30-2 30-5-12-11-26-17-36 3-9 9-16 14-24l-18 18-19-19c6 7 11 17 15 24-5 8-8 18-13 25v-5h-3c-9-26 0-46-8-72-1-1-1 2-1 9l-3 49-4-2c6 7 4 16 3 23-1 3-1 2-1-2-2-11-9-22-13-32 4-3 9-4 13-6l-15 2-16-16c1 7 9 11 10 18l-2-1c-4-5-6-3-8 13-2 9-4 19-8 27-2 1-6-13-5-18l5-8c4-8-2 0-5 3-2-9 0-18 1-25 2-9 3-29 1-31s-2-2-3 0l-4 9c-4 19 2 34-2 54l-10-13c-10-16-14-17-29-17 6 1 13 3 16 7 1 2 1 2-4 7l-11 14c-1-6 1-11 4-15 10-13-4 4-4-2-2 3-3 9-6 6-6-2-4 1-7 11 0-2 1-13-1-9l-5 16c-3 0-5-3-9-5l8 9c-2 8-7 16-10 22l-2-5c-7-23-1-43-8-73l-5 55-18-17c-10-12 8-18 16-20-10 1-20 4-26 8l-3-2c-3-1 0 2 2 4-6 9-9 34-12 25v-7c3-2 2-3 0-1-6 0-2-39-2-46-2-6-7-11-11-16l2 19c2 17 7 45-1 56-3 4-4 4-4 3-11-17-8-23-8-33l-4 7-5-7c-4-3-8-4-13-4 16 15 12 36 11 58 0 9 0 10-4 13-5 6-5 4-4-15v-26l-2 2c1-1 2-5 0-2-2 1-4 11-6 22-2-16-1-33-1-50 3 1 3 2 5 4l-3-7c1 0 1-1-1-1-3 0-5 2-6 6 0 3-2 6-5 9a87 87 0 00-22 39c-1-18 3-38 10-52-7 6-9 14-14 22l-4-38c-2 11-4 27-4 51-1 37-2-25-2-37l-4 10c0 5 0 5-4 5-10 1-11 4-16 9-7-6-4-18-4-25-4 1-4-4-5-8-2-3-3 0-6 2-3-5-10-18-10-14l4 30c-6-2-7-8-7-12-1 5-6 8-7 2-3-4-1 5-1 9-5 4-8 11-13 13l-13-4-11-12c-2-2-3 3-3 5l-1-5c-5-13-3 6-3 12-3 1-7 4-7 1-1-3-3 2-4 4l-7-24v8l-16-26c-3 4 5 32 2 32-2 0-2 0 0 2 4 12 2 19 1 35 0 14-3 5-4-13-1-14-2-21-11-25 8 12 5 27 4 36l-1-1-11-23-4-18c4-9 9-19 14-26-10 8-19 20-24 30 0-5 1-32-2-24-4 16-6 33-7 50l-4-62c0-21-1-21-4-5-2 29-2 57-2 86-4-11-5-23-11-33-3-5-3-6 2-11 5-6 4-6-1-1l-5 3-4-6c-4-6-19-22-22-24l11 20 5 9-7 7-14 18c-2-2-2-24-3-23s-1 0-2-4l-1-8c-2-3-2-1-2 25l-3 32-1-6-2-13-2-22c-2-24-6-46-6-30L8 79 7 96v25l-1 8-2-7c-4-15-4-23-4 44v5h1280V88l-6 17-4-62c0-21-1-21-4-3l-2 48c0 33 0 36-2 32l-2-31-4 11c-7-19-17-29-28-44 4-11 11-20 17-30-24 16-38 53-43 75 3-34 2-67-5-101-1 26-3 55-6 78zM643 55v13l-1 10c-3-1-3-3-1-16l2-11zm466 3c-1 4-2 5-4 3-1 0-1-1 1-4 5-4 0 1 3 1zm68 8l-1 2c-4-3-2-8-2-13 0 4 2 7 3 11zm-942 4c0 5-2 10-3 9l-1-9c0-12 4-13 4 0zm601-7c0-1-2-2 0-2v2zm395 2c11 21 8 23 4 46 0 6 0 3-3 5l-10-13c-9-9 0-28 5-43zm-182 9c0 4-1 7-3 11-1 10-6-5-7-9l7-14 3 12zm58-10l-4 31-4-8 1 40c-3-3-8-14-10-11h-1l1-3c1-1 1-1 0 0-3 1-3-2-2-13 1-10 4-18 10-30 5-7 3-8 9-6zm-493 4c7 12 7 11 2 21-7-5-8-9-8-15-1-11-2-9 6-6zm469 12c1-3 8-17 13-14l-13 14zm42 31c1 16 1 19-4 19V99c0-6 0-7-1-6l-1-5-1 3c-1 2-2 1-3-11l-1-14c8 14 10 31 11 45zM147 96c0 19-1 22-3 14-3-15-3-27-3-41 6 11 6 20 6 27zm372-19l-2 4-1-5 1-6 2 1 2 2zm115 6c-1 0-2-9-1-12 3 0 2 8 1 12zm202 1c-2 0-2-11-2-15 2 5 3 10 2 15zm342-6c0 2-4 2-4 1l4-8zm-708 3l-1 34-3-1c-2-4-5-6-7-7s-2-1-1 1c4 4 0 18-2 17-1-1 0-18 1-24 2-10 6-19 12-27zm-245 4c1 4 1 4-1 3 0 2 1 15-1 14-3 2-3 7-4 12-2-13-1-26-1-39 3 3 7 5 7 10zm693 28V77c2 12 1 25 0 36zm64-30c1 5 0 6-3 9 0-5 0-22 3-9zm-807 1c-4-1-3-4-3-7 2 2 6 5 3 7zm468 25c-2 0-4-19-2-20s1-3 0-2c-2 0-2-1-2-5 0-5 0-5 2-3 4 11 2 17 2 30zM105 89c-1 0-1-8 1-10 2 3 2 7-1 10zm103 16c-8-15-4-18 1-26l-1 26zm23-23c0 2-1 2-1-1 1-3 1-1 1 1zm483 24c-3-7 7-26 10-25l-10 25zm465-4c-3 13-4 13-4-3 0-13 0-15 2-17 4 0 2 14 2 20zM876 85c2 3 2 3 0 10l-2 8c0-4-5-29 2-18zM53 93c-1-1-1-1-2 1-5 0-1-7 0-8l2-4c4 0 3 14 0 11zm254 18l-5-16 3-6 4-6-2 28zm140-28c-1 2-1 2-2 1 1-2 1-2 2-1zm80 14h-2c-2 0-2 4-3 6-3-5 1-22 3-20 2 5 2 9 2 14zm-344-3l4 6-9 18-2-11V85c2-1 3 1 7 9zm78 23c-4-9-16-26-2-31l4-1-2 32zm130-14l-6-8c10 18 0 28-6 42 0-17 1-36 5-51 4 2 5 9 7 17zm374-14c-2 2-2 1-1-2 3-2 2 0 1 2zm-153 2c-3-5-3-6 1-2 3 3 3 5-1 2zm438-1c-1 1-1 0-1-1 0-4 1-2 1 1zm-858 4c-6-4-5 0-7-6 3 1 7 2 7 6zm538 13c-1 13-1 14-3 10-2-32 3-38 3-10zm23-18l1-2c1 2 1 3-1 2zm499 54c0 11-10-16-11-18l-1-38c4 16 14 43 12 56zm-580-23l-2-7c-3-56 2-14 2 7zM488 93c0 3 1 5-2 2-2-6-1-7 2-2zm95 19c0 5-2 6-6 10v-3c-2-10-3-19-1-29l7 22zm317-2c-3-5-11-14-10-18 5-4 10 13 10 18zm-738-3c0-9 1-17 3-16 0 8-3 42-3 16zm283-6c0-4 2-10 3-10-1 3-3 20-3 10zm541 1c1 10-4 19-5 27-1-9-4-28 0-34 3-5 3-4 5 7zm49 26l-7 13c-3-2-4-5-5-9 0-7 9-42 10-40 3 12 2 24 2 36zm-110-26c-2-1-1-6-1-10l1 10zm-108-5c-1-3 0-4 1-3 2 3-1 6-1 3zm-584 0c0-2 0-3 1-2 1 2-1 5-1 2zM64 131l-8-8V97l2-1 6 35zm563-27c-2-2-2-7-1-8 2 1 3 12 1 8zM38 114c3-6 3-13 8-18-1 7-5 12-8 18zm755 7c-2-8-2-17-2-25 2 8 2 17 2 25zM529 99c-1 2-1 2-2 0 1-2 1-2 2 0zm288 1c4 10 2 17-1 26-2-10-1-19-1-29zm-515 14c-5-5-2-12-1-16l1 16zm759-5c-1-3-1-13 1-5zm78-5c-1 5-1 1-1-2 1-3 1-2 1 2zm86 10c8 14 8 2 8 34 0 16-2 15 0 23l-2-8c-3-11-8-7-13-16-7-19-3-24-1-44 0-2 5 4 8 11zm-484-5c0 3 0 4-1 1-2-5-1-9 1-1zm18 7c-1 4-1 5-3 1-1-12 2-20 3-1zm406 10l-3 26v-5c-2-10-1-23 1-33 3-12 3-10 2 12zm-475 0l-7 7c0-22-2-37 7-7zm197-17c0-3 0-3 1-1 0 3-1 4-1 1zm-359 26l-3 3c1-27 5-33 3-3zm-344 7l5-21c2-9 2-9 4-5-4 13 0 17-9 26zm115-16c-6-2-3-7-2-13 4 3 8 13 2 13zm599 17c-3 5-7 9-9 14-5-17-5-31 1-44l8 30zm-541-23c-2 7 0-3 0-5zm196 0c0-6 0-6 1-3 0 6-1 11-1 3zm-86 1c-2-5-2-6 0-3 1 2 2 8 0 3zm101 7c-1-3 0-11 1-11 0 2 1 15-1 11zm19 2l-8-1 7 4-6 11c0-6-1-12-3-17 1-2 6-10 7-9l3 12zM49 167l-4-6c-6 2 2-45 4-41 2 16 0 31 0 47zm917-30c0-6 1-11 3-17 0 7 0 36-3 17zm133 17c-1 5-7 11-8 13s-2 2-4 2c-1-6-3-46-1-48 8 10 10 20 13 33zm-395-31c-1 2-1 2-1 0 1-3 1-3 1 0zM58 168s-2-7-3-30c0-12 0-13 2-11 8 16 3 25 1 41zm58-27c-1-2-3-19-1-14l1 14zm134 6l-5 14 1-31c1-2 3 12 4 17zm50-17c3 8 1 10 1 19-1-6-4-11-6-17-2-4 0-5 5-2zm822 22c-1-1-2-19-1-20l2-1c3 2 0 16-1 21zm-782-16c0-2 0-3 1-2 1 2-1 5-1 2zm-143 35l-1-6v-27c3-4 1 28 1 33zm192-29l1-4-1 4zm464 13c-2-2 0-15 0-9zm-524 2c-1-9-2-9 2-15l-2 15zm60-10v24c-7-6-3-31 0-24zm511 16c-2-5-2-9-2-14 2 1 2 10 2 14zm-8 5c-5-2-1-7 1-10-1 3 3 10-1 10z"/></svg>