<?xml version="1.0" encoding="UTF-8"?>
<svg xmlns="http://www.w3.org/2000/svg" width="240" height="240">
<path fill="#ffe" stroke="#f88" stroke-width="10" stroke-linejoin="round" d="M50,120 C50,120 120,120 120,50 C120,50 120,120, 190,120 C190,120 120,120 120,190 C120,190, 120,120, 50,120z"/>
<path fill-opacity="0" stroke="#f88" stroke-width="12" stroke-linejoin="round" 
d="M60,100 
   C  60,100  90, 90 100, 60
     C 100,60 120,-60 140,60
   C 140, 60 150, 90 180,100
     C 180,100 300,120 180,140
   C 180,140 150,150 140,180 
     C 140,180 120,300, 100,180
   C 100,180  90,150  60,140
     C 60,140, -60,120 60,100
   z"/>
</svg>