<svg viewBox="0 0 131.3 251.6" xmlns="http://www.w3.org/2000/svg"><path d="M63.6 244.6c.2-3.8.1-10-.3-13.5-.6-6.2-.8-6.5-2.8-5.8-1.2.4-3.5.7-5 .7s-2.7.2-2.7.6-1.3.6-3 .5c-2.1-.2-3.1.3-3.5 1.6-.7 2.2-3.5 2.6-3.5.5 0-1.4-1.6-1.6-3.8-.2-.8.5-1 .3-.6-.7.4-1.1 0-1.4-1.8-1-1.3.2-1.8.1-1-.2 1.7-.8 1.5-2.5-.2-1.9-.8.3-2.1-.4-3-1.7l-1.6-2.3v2.2c0 1.2-.5 2.2-1 2.2s-1-.3-1-.8-1.1-.7-2.5-.4c-1.5.3-2.5 0-2.5-.6 0-.7.8-1.2 1.9-1.2s2.4-.6 3-1.4 2.5-1.7 4.1-2c4.7-1.1 4.3-2.2-.9-2.2-2.6 0-6-.4-7.5-.7a7.8 7.8 0 00-4.8.5c-1.7.8-2.3.8-2.6 0-.2-.7-.8-1-1.3-.6-1.3.8-8-.6-7.4-1.6.3-.5 2-.6 3.8-.3 2.8.5 3.3.2 4.3-2.4 1-2.5.8-2.9-.9-3-1.4-.1-1.6.2-.8 1.2.9 1 .7 1.5-.6 2-1 .4-2 .2-2.1-.4s-1-1-1.6-1-1.6-1-2.1-2.3c-.6-1.4-2-2.3-3.5-2.4-5.4-.2-5.5-.3-3.2-2 2-1.4 2.1-1.7.8-2.7-.9-.6-1.9-2.6-2.2-4.4-.8-4 1.2-4.4 4.5-.8 3.3 3.5 7.4 5 10 3.6 2.2-1.2 2.8-3 1-3-.5 0-.8-.6-.7-1.3s-.3-1.1-1-1-1.2-.2-1.2-.7-1-.6-2-.3-2 .1-1.8-.4-.4-1.9-1-3.1c-1.7-3-1-4 3.4-4.8 2.3-.5 3.2-1 2.6-1.7s-1.7-.6-3 .2c-2.6 1.3-4.2 1.3-4.2 0 0-.5.9-1 2-1 3.3 0 3.3-2 0-3.3l-3.3-1.4 3-.7 2.8-.7-2.8-2.4a12 12 0 01-2.7-2.9c0-.6 5.6.3 8 1.2l2.2.7c.4 0 1 .4 1.4.8 1.5 1.5 10.4.4 10.4-1.4 0-.5-1-.9-2.3-.9s-3.3-1-4.5-2.4c-1.4-1.5-3-2.2-4-1.8-1.2.5-1.4.2-.8-1.3.5-1.5.4-1.7-.5-.8-1.4 1.4-3.3 0-4.3-3.4-.5-1.4-1.3-1.9-2.5-1.6-1.4.4-2-.2-2.3-2-.5-2.6.5-3.6 1.7-1.7 1 1.6 4.5 1.2 5.1-.5.3-.8 1.2-1.5 2-1.5s1.4-.4 1.4-1-.7-1-1.5-1-1.5-.4-1.5-1-.7-1-1.6-1c-1.3 0-1.4-.3-.5-1.3 1.4-1.7.2-3-1.5-1.6-1 .8-1.3.6-1.1-1 0-1 .6-1.7 1.1-1.4s.3-.2-.7-1-1.7-1.7-1.7-2c0-1.4 2.3-.5 6.5 2.3 2.4 1.7 4.6 3 5 3 1.4 0 .2-2.9-2.5-5.7-2.1-2.1-2.7-3.2-1.8-3.6.7-.3 0-.3-1.5 0-2 .4-2.7.2-2.7-1 0-1 .9-1.7 2.2-1.7 1.3 0 1.7-.3 1-.6s-1.2-1.2-1.2-2.1.3-1.3.7-1 1.7 0 3-.8c1.3-.9 4-1.4 6.4-1.2 2.7.1 4.3-.2 4.6-1 .3-.7 0-1.3-.4-1.2h-2.3c-1.3 0-1.3-.2 0-1 1.3-.9 1.2-1-.2-1-1.9 0-3.5-4.2-2.4-6 .4-.5 2.7.3 5.7 2.2 4.2 2.6 5.2 2.9 6 1.7 1.3-2.1 1-3.6-.3-2.2-.7.7-1.9 1.2-2.6 1.2-1.2 0-1.2-.2-.2-1.4s.8-1.8-.5-3.2c-1.2-1.1-1.4-1.9-.6-2.1.6-.3 1-.9 1-1.4 0-.6-.9-.7-2-.3-1.5.4-2 .3-1.5-.4.4-.7 0-1.2-.9-1.2-.8 0-1.5-.4-1.5-.9 0-2 2-2 5.1-.1 3 1.8 3.6 1.8 5.6.5 1.2-.8 2.8-1.2 3.6-.9s1.8.1 2.1-.5.2-1-.4-1-1-.8-1-1.8c0-1.6-.2-1.6-1.5.2-1.8 2.3-2 1.3-.4-1.8 1.2-2.1 1.2-2.1-1-.2s-2.2 1.9-3.4-1.3c-.7-1.9-1.8-3-2.7-2.9-1 .2-1.6-.7-1.9-2.1-.2-2.1 0-2.3 2.2-1.8 3.6.9 6-.2 4.6-2-.6-.7-.9-2-.5-2.9.4-1.2.2-1.3-1.4-.5-3.1 1.7-4.1 1.3-3.4-1.5.4-1.6.2-2.5-.6-2.5-.6 0-.8-.4-.5-1s0-1.8-.7-2.8.7.2 3.2 2.4 6 4.6 7.7 5.3 3 1.8 2.7 2.3-.2.9.3 1l4 .4c2 .3 3.3 0 3.3-.7 0-.6.6-.8 1.3-.6.8.3 1 .7 1.1-.5.1-1.5.3-.2-.6-.7-1.7-1-4.8.3-4.8-1 0-.6-.8-1-1.8-1s-2.7-.7-3.9-1.5-2.3-1.2-2.7-.9-.6 0-.6-1V86c0-1.7 6.8-.7 10.7 1.5l4.3.8v-1c0-1.9-.6-3-2-3.3-2-.5-2.8-2.3-1-2.3.6 0 .6-.6-.1-1.8-1.2-2-6-1.9-5.6 0 0 .7-1 1.5-2.6 1.9-1.7.5-2.7.4-2.7-.3s-.5-.6-1.4.2c-1 .8-1.6.8-2 .1-.4-.6.3-1.5 1.6-2 9-3.6 10.8-4.6 11.3-5.9.4-1.1.2-1.2-.8-.3-.8.6-1.7.8-2 .5s-3-.6-5.9-.5c-5 .2-6.3-.5-2.1-1.1 3.3-.5 5.3-2.8 4.9-5.3-.4-2.1-.2-2.2 1.4-1.2 1 .6 1.7 1.4 1.5 1.7s1.2.7 3.1.8 3.3-.1 3-.6.1-2 .8-3.4c1.2-2.2 1.2-2.5 0-2-1 .3-1.4-.3-1.4-1.6 0-1.2-.6-2.2-1.4-2.2s-1.6-.8-1.9-1.8c-.4-1.7-.2-1.7 3.3.2 2.1 1.2 3.7 2.3 3.5 2.6s1.2.7 3.2.8c3.1.2 3.3.1 1.9-1.3-.9-.9-1.6-2-1.6-2.3s-1.4-1.3-3-2c-1.7-.7-2.7-1.8-2.4-2.4.4-.6 0-1.6-.7-2.2s-2-2.5-2.6-4.2c-1-3-1-3.2.8-2 1 .6 1.7 1.6 1.5 2.1s1 1.1 2.5 1.3c2 0 2.9-.3 2.9-1.3 0-.9.6-1.2 1.7-.7 1.4.5 1.3.2-.4-1.6-2.5-2.7-2.5-6.7 0-6.5.9 0 1.9-.7 2.2-1.8s1-1.6 1.5-1.4 1.1.2 1.4-.4-.3-1.2-1.4-1.6-2-1.3-2-2.2c0-1.3.3-1.4 1.2-.5 1.6 1.7 2.8 1.6 2.8-.3 0-.8.5-1.5 1-1.5s2.4-.9 3.8-2 2.8-1.6 3-1c.4 1.3-3.7 5.3-4.8 4.5-.6-.3-.7.1-.4 1 .3.8.1 1.5-.5 1.5s-1.1 1-1.1 2c0 2 0 2 4.2 0 2.4-1.2 5-2.8 6-3.6 1.1-1 1.8-1.2 2.3-.4.4.7-.2 1.4-1.4 1.7-1.1.3-2.3 1.4-2.7 2.5s-1 1.6-1.4 1.4c-1-.6-2.1 1.9-2.6 5.3-.2 1.3-1.1 3-2.1 3.7-2.7 2-1.2 2.6 2.1 1 1.5-.9 3.4-1.6 4.1-1.6s2.7-1.1 4.4-2.5c3-2.5 3-2.5 3-.6a3 3 0 01-1.9 2.6c-1 .4-1.9 1.2-1.7 1.8s-.5 1.2-1.3 1.2c-1.5 0-2.8 3.5-1.3 3.5.4 0 2-.6 3.7-1.5s3.1-1.3 3.4-1-.1.6-.9.6c-1 0-1 .2-.2.7 1.9 1.2-.2 3.5-3.2 3.5-2.5 0-2.7.2-2.2 3.4.5 3 .3 3.3-1.7 3.3-1.2 0-2.7-.4-3.3-1-.7-.8-1.2-.5-1.6 1.1-.6 2-.3 2.1 3.6 1.5 2.3-.3 5.9-1.4 7.9-2.4 3.2-1.6 3.6-1.6 2.8-.3-1.6 2.7-4.8 6.1-5.7 6.1-1.7 0-6.5 5.3-5.6 6.2 1.4 1.4 9.5-1.9 13.2-5.3 2.4-2.1 3.7-2.7 4.4-2s.7 1.1-.2 1.1c-.7 0-1 .5-.6 1s-.5 2.2-1.8 3.5c-2 1.8-2.3 2.6-1.4 3.5.7.6.7 1 .2 1-2.3-.7-5.5 1.3-5.5 3.2 0 1.2-.8 2.2-2 2.6-1.1.2-2 .9-2 1.3s-.8.6-1.7.2c-1.1-.4-1.4-.2-.9.6 1.3 2.1 5.3 0 12.1-6.4l4-3.5c1.7-1.3 1.8-1.3 1.2.3-.4 1-.2 1.7.3 1.7s.2 1-.7 2c-2.5 3-2.8 7-.6 7 1.6.1 1.6.2-.2 1.3-1.1.6-2.1 1-2.2.7s-1 .6-1.9 1.8a5.4 5.4 0 01-4 2.2c-3.1 0-3.1 1.4 0 2.9 1.8.7 3.4.8 5 .1 1.6-.5 2.6-.5 2.6 0s1-.2 2.4-1.5 3.1-2.5 4-2.5 1.6-.9 1.9-2c.6-2.5 1.9-2.5 3.5 0 1 1.8 1 2-.6 2-1.4 0-1.5.2-.2 1 1.2.8 1.2 1-.3 1.6-1 .4-1.6 1.3-1.3 2s-.2 2-1 2.9c-1 1-1 1.6-.4 2 1.4.9-.7 3.5-2.6 3.5-.8 0-1.4.5-1.4 1.1 0 .7 1.6.8 4.7.4 2.6-.4 4.4-.3 4 .1-.8.8-1.6 1-6.7 1.9l-3 .6-3 .1c-2 0-2 .1-.6.5 3.2 1 4.5 2.7 3 4.1a5 5 0 01-3 1.2c-1.3 0-1.4.4-.5 1.4.6.7.8 1.6.4 2s.1.9 1 1.2 1.4 1 1.1 1.5c-1.5 2.6 12.5-1.3 14.6-4 .9-1 6.1-4.2 6.5-3.9.2.2-.2 1.5-.9 2.9-.8 1.6-2 2.3-3.2 2.1-1.9-.3-1.9-.3 0 1.2 1.8 1.3 1.8 1.6.4 1.6-1.7 0-3.2 2.6-2.3 4.1.4.5-.3 1-1.4 1-1.4 0-2.3.8-2.7 2.5-.4 1.4-2 3.2-3.5 4-1.8 1-2.6 2-2.3 3 .3.8.8 1.4 1 1.4a76 76 0 0016.8-8.8c2-2.2 5.6-3 5.6-1.2 0 .6-1 1-2.3 1-1.6 0-1.8.3-.9 1 1.5.9.7 5-1 5-.5 0-.7.5-.3 1s.1 1-.5 1-.9.5-.6 1-.4 1-1.6 1.2-2.3 1-2.3 1.8c0 1-1.1 1.7-2.8 1.9-1.5.1-2.7.9-2.7 1.6s-1 2-2.3 2.9c-2 1.3-2 1.5-.4 1.6 1 0 1.6.5 1.2 1-.8 1.4 3.7 0 6.6-2.1 1.5-1 3-1.9 3.4-1.9s2.1-1.1 4-2.5c3.3-2.5 5-2.1 4 .9-.4.8-1.2 1.3-2 1s-1.2.3-1.2 1.1.7 1.6 1.6 1.6c1 0 1.1.3.4.6-.7.3-1 1.2-.6 2 .5 1.3.2 1.4-1.6.4-2.1-1.1-3.1.2-1 1.5 1.5 1-2.7 4.6-4.6 3.8-.8-.3-1.5 0-1.5.6s.6 1.4 1.4 1.7 1.2 1.1 1 2-1 1-1.5.8-1 .1-1 1c0 2.8 2.6 1.6 7.6-3.5 5.3-5.5 10-8.5 11-7 .2.4-.2 1.4-1 2-2 1.7-2 6 0 8.1 1.4 1.5 1.4 2 .3 3.9-.7 1.1-1.9 1.9-2.6 1.6s-1.2 0-1.2.4-.7.7-1.5.4c-1.8-.7-2 .8-.3 2.6 1 1 1 1.1-.8.2-2.5-1.2-3.4-.6-3.4 2.1 0 1.6-.5 1.8-2.8 1.3-1.8-.4-2.3-.3-1.3.3 1.7 1.2.5 3.2-1.5 2.5-1-.4-1.3-.1-.8 1 .5 1.3 1 1.3 4.2 0 2-.9 5.6-3.4 7.9-5.6l4.1-4-.5 4.4c-.4 2.4-1 4.5-1.5 4.7-1.6.6-3.9 6-2.8 6.6.5.4 1 1 1 1.5 0 1.2-5.4 2-6.5 1-1.3-1.4-2.5-1.2-2.5.4 0 .7 1.6 1.8 3.6 2.4 4 1.2 8 .2 10.1-2.5 1.2-1.5 1.3-1.4 1.3.4 0 1-1 3-2 4.2s-1.7 2.2-1.3 2.2-.7.7-2.4 1.6-3 2-2.7 2.5c.8 1.3-2.5 2.2-4 1-.9-.8-1.7-.6-3 1-1 1-2.7 1.9-4 1.8-3.4-.3-4.3.1-2.1 1 1.2.5 3.3.3 5.2-.5 2.7-1.1 3.4-1 4.4.1.6.8 1.9 1.3 2.8 1s2.8-.7 4.3-1l5-1.1c2-.6 1.9-.4-.7 2.9-1.5 2-3.2 3.3-4 3-1.9-.7-5 1.7-5 3.9 0 1-.3 1.6-.7 1.5s-1.6.8-2.7 2-2.5 2.2-3 1.8c-1.7-1-2.5 1.7-.9 2.9 1.2.9.2 1-4.8 1-5.5 0-6.4.2-6.4 1.7 0 1.2-.5 1.6-1.5 1.2-.8-.3-2.3-.2-3.3.2s-2.7.6-4 .5c-3.6-.3-2.5 1.7 1.5 2.8l3.8 1.1-4.8-.5c-2.7-.2-4.7 0-4.7.6 0 .5 1 1 2.2 1 2.2 0 2.2.1.3.9-1.5.6-2.7.2-4.6-1.6-2.6-2.4-4.5-3.2-3.4-1.4.3.6.1 1-.5 1-2.4 0-.8 1.8 2.2 2.5 2.9.6 3 .8 1.5 1.7-1 .5-2.6.7-3.5.3s-2-.7-2.4-.6-1.3-1.2-2-2.9c-1.6-3.7-2.6-3.8-3-.2-.2 1.8-.8 2.6-1.8 2.4-5.6-1.3-6-1-6 3.2 0 4 1.4 15.4 2.6 20.9.5 2.6.4 2.7-3.3 2.7h-3.9l.4-7zm-15.8-21c1 0 1-.3.3-.6s-1-1.2-.6-2c.5-1.4.2-1.5-1.3-1-3.2 1.3-4.9 1.4-6.2.4-.8-.7-1.2-.7-1.2 0 0 .6-.8 1.3-1.8 1.5-1.5.4-1.4.6.5 1.3 1.9.8 5.3 1 10.3.4zm-25-16.2c0-.5-.7-.2-1.5.6s-1.5 2.1-1.5 2.8c0 1.5 3-2 3-3.4zm14-4.8c0-.5-.5-1-1.1-1-.6 0-.9-.7-.5-1.7.5-1.6.5-1.6-.8 0-1.1 1.5-1.6 1.6-2.8.5-1.5-1.5-8.8-2-8.8-.7 0 .5-.7 1-1.5 1-2.1 0-1.9 1.7.2 2.2 4 .8 15.3.6 15.3-.3zm10 0c0-1.3-1.7-1.3-2.5 0-.4.6 0 1 1 1s1.5-.4 1.5-1zm14.5-2c.3-.5 0-.7-1-.3-1.7.6-2 1.3-.6 1.3.5 0 1.2-.4 1.6-1zm42.5-2c0-.5-.7-1-1.5-1s-1.5.5-1.5 1 .7 1 1.5 1 1.5-.4 1.5-1zm-82-1.3c0-.3-1-.7-2-1s-1.8 0-1.5.4c.6 1 3.5 1.3 3.5.6zm82.5-1.7c-.8-1.2-1.5-1.2-1.5 0 0 .6.5 1 1 1s.8-.4.5-1zm-78-4c.3-.5-.4-1-1.7-1-1.9 0-2 .3-.8 1 1.8 1.2 1.7 1.2 2.5 0zm4.5-1c0-.6-.5-.8-1-.5-1.3.8-1.3 1.5 0 1.5.5 0 1-.4 1-1zm-16.3-1.1c.9-.9 1.6-.9 2.5 0 1 .7 2.2.6 4.7-.6 1.9-1 2.9-1.8 2.2-2s-1.9.1-2.7.8c-1.3 1-1.7 1-2.3 0-.7-1-1.7-1-5.1 0-3.2.8-4 1.4-3 2 2 1.2 2.4 1.2 3.7-.2zm102.6-3.8c1-1-1-1-6.6-.2-.4 0-.7.6-.7 1.2 0 1.3 5.8.5 7.3-1zm-97.8-4c.3-.6 0-.8-1-.4-1.7.6-2 1.3-.6 1.3.5 0 1.2-.4 1.6-1zm5-14c-.8-1.3-1.5-1.3-1.5 0 0 .5.5 1 1 1s.8-.5.5-1zm1.4-5c1.8-1 .4-3.4-1.7-2.6-.8.3-2.6-.1-4-1a6.4 6.4 0 00-5-1c-3 .8-2.4 1.5 3.1 3.7 5 2 5.8 2 7.6 1zm100-5.1c0-1.8-3-4.4-3.8-3.3-.3.5-1.4 1.3-2.4 1.6-3.1 1.2-1.8 2.7 2.3 2.7 2.2 0 4-.4 4-1zM31 154c-.7-.3-1.6-.3-2 0s.3.6 1.4.6c1.1 0 1.4-.3.6-.6zm4.8-12.4c-1.3-.8-1.2-1 .5-1 1.6 0 1.7-.2.5-1-.9-.5-1.9-.5-2.6.1-.8.7-1.5.7-1.8.1-.3-.5 0-1.2.9-1.5s1.5-1.2 1.5-1.9c0-.8-.3-.9-.8-.2-1 1.6-4 2.5-4.8 1.4-.3-.6-1-.7-1.5-.4s-1 0-1-.5-1-1-2.2-.8c-1.6.2-2.2-.3-2-1.5 0-1-.6-1.8-1.6-1.7-7.4 0-2.3 6.6 6.6 8.5 7.5 1.6 10.4 1.8 8.3.4zm58-12c0-.5-.5-1-1-1s-1 .5-1 1 .4 1 1 1 1-.4 1-1zm-62-1c1.2-.7 1-1-.8-1-1.2 0-2.2.5-2.2 1 0 1.3 1 1.3 3 0zm11.5-13c1-1.7-1.2-3.6-2.6-2.2-1.2 1.1-.5 3.2 1 3.2.6 0 1.3-.4 1.6-1zm5-2c-.8-1.2-1.5-1.2-1.5 0 0 .6.5 1 1 1s.8-.4.5-1zm40.5-6c0-.5-.5-1-1-1s-.9.5-.5 1c.8 1.3 1.5 1.3 1.5 0zm-39.5-4c.3-.5.2-1-.4-1s-1.3.5-1.6 1-.2 1 .4 1 1.2-.4 1.6-1zm-5.8-1.2c-.4-1.4-2-1.3-2.5.2-.2.6.4 1 1.3 1s1.5-.5 1.2-1.2zm-3.7-1.8c0-1.6-2.2-2.2-3.1-.8-1.4 2.1-1 2.7 1 2.1 1.2-.3 2-.9 2-1.3zm45-6.5c3.8-1.9 3.7-2.2 0-1.7-1.6.3-2.8.8-2.5 1.3s-.5 1-1.7 1.2c-1.6.3-1.8.5-.5.6 1 0 3.1-.5 4.7-1.4zm-12-11c0-.3-.7-.5-1.6-.5s-1.2.5-.9 1c.6 1 2.5.5 2.5-.5zm-13-14.8c0-1-1-1.2-3.3-.8-3.1.5-3.1.5-.7 1.2 3.7 1 4 1 4-.4zM20 224c.3-.3 1.2-.3 1.9 0 .8.3.5.5-.6.6-1 0-1.7-.2-1.3-.6zM37.8 62.7c-1.2-2.3-1.3-3-.3-3 1.4 0 3.3 3.8 2.3 4.4-.5.3-1.4-.3-2-1.4zm15-30.2c0-.5.4-.9.9-.9s1.6-.2 2.5-.6 1.6-.1 1.6.4-1.1 1.2-2.5 1.5-2.5 0-2.5-.4zm8.9-7.5c-1.3-1.5-1.2-1.7.6-1 2 .6 2 .6.1-.8-1.7-1.3-1.5-1.4 1.8-1.2 2 0 3.6.3 3.6.4 0 .4-4 4.2-4.4 4.2-.2 0-1-.7-1.7-1.6zm-.3-7c-1.7-2.3-1.7-2.6-.3-2 1 .3 1.7.1 1.7-.4s.5-1 1.1-1c.8 0 .8.4 0 1.3-1.3 1.6-.2 3.4 2.4 4 1.6.4 1.5.5-.5.6-1.6 0-3.2-.9-4.4-2.6zm.5-6.6c-1.5-1.6-1.4-2.8.3-2.8 1.6 0 3 2.7 1.7 3.5-.4.2-1.3 0-2-.7zm.6-8.1c-.3-.7-.1-2 .4-2.7.6-1 .9-.7.9 1.3 0 3-.5 3.5-1.3 1.4z"/></svg>