<?xml version="1.0" encoding="UTF-8"?>
<svg version="1.1" viewBox="0 0 225.8 388.2" xmlns="http://www.w3.org/2000/svg">
 <g transform="translate(-563 -18.4)">
  <path d="m665.9 18.4c-1.687 3.844 2.378 21.48-2.998 15.42-13.79-11.76 4.491 9.414 1.903 15.93-3.052 7.345-4.874-19.51-9.683-6.727-10.55-8.123-5.584 3.668-1.722 8.805-9.288 6.381 10.96 1.46 2.503 8.518-13.11-8.27-0.0959 7.219-1.628 5.804-5.711 5.011-27.97-10.98-12.88 3.094-11.88 2.073 1.82 4.282 1.5 8.531 6.744 2.407-14.72 5.075-1.438 7.188 3.484 2.125 13.96-0.8263 12.55 1.016-7.208 7.672 7.088-1.143 4.856 6.796 3.991-0.3424 7.241-8.303 7.625 1.719-8.477 6.593-24.01-6.737-26.79-1.583 11.65 8.84-13.06-6.529-15.75-3.97 4.779 6.681-19.5 2.102-5.419 8.699 7.773 2.069 13.86-2.689 5.549 4.947 5.179 4.017 17.32-9.522 7.303 1.076 0.9569 11.81 22.91-8.472 10.73 2.987-5.097 5.962 6.081 1.094 5.926 4.352 3.597-6.714 16.74-0.8325 18.15-11.93 2.028 8.929-12.66 15.78-19.78 16.33-6.305-4.838-12.97-3.926-8.737 0.4909-9.203-4.187-11.37-0.2508-20.26 0.738-1.596 4.787 5.743 1.012 0.9542 6.049 7.613 0.7788 7.02 5.858 14.78 6.346 4.285 8.47-18.69-2.78-9.07 6.921 1.977 11.76-13.14-7.752-9.604 4.285-8.142-2.885-14.84 0.6998-3.017 3.535-0.656 3.649 11.72 8.071 13.47 8.125 5.279-3.701 10.07 16.51 17.81 9.766 2.188 0.5342-20.66 11.2-26.9 2.774 2.395 8.499-19.23-0.5757-5.87 8.826 1.059 4.741 8.114 8.514 11.2 6.571-1.784 5.726 12.45 2.698 0.127 6.495-8.286-1.229-14.64-2.598-19.74 1.22 8.596 6.334 13.36 8.171 19.71 13.15 1.761-4.433 17.76-7.724 10.63-3.706-6.238 1.148 3.141 8.552-6.872 9.341-11.03 2.932-25.53 5.064-31.22 10.39 6.947 2.369 8.072 4.092 8.409 7.053 2.462 4.132 11.29 0.8857 12.85 4.834 0.8532-6.095 10.67 7.11 12.97-4.603 1.106 7.59 5.428-2.79 6.854 3.698 0.8461-8.68 16.48-1.628 1.635 1.553-7.399 1.369-23.71 5.495-7.256 7.371-6.682 6.367-26.95 2.261-38.48 5.044-10.56 1.383-6.074 3.585-0.2023 6.808-12.82 6.071 1.608 3.1 5.77 7.245 8.909-7.868-0.9871 6.814 8.66 0.1381 3.564 8.969 11.87-6.225 9.987 5.896 5.711-1.942 6.207-5.45 6.215 0.5811 5.637-0.4697 23.02 2.116 7.252 6.102-7.753 5.783-24.02 0.546-26.78 2.45 5.273 5.418-33.08-7.329-14.59 2.948 11.77 3.283 2.302-0.6952 0.3171 4.541 7.044 0.4079 6.175 1.843 5.648 5.05 2.441 0.4127 13.99 0.0879 12.37 0.7502-1.382 4.677 8.647 3.083 8.227 0.8647-9.847 12.75 13.91-2.265 3.02 8.399-9.785 9.155-28.7-0.6618-32.43 5.387-10.98-5.706-7.838 2.507-7.799 3.384-5.886-3.652-19.08 0.268-5.527 3.106 13.46-1.686-4.287 6.007 4.973 8.983 2.905 8.298 17.76-1.662 13.34 9.249-6.783-1.838-21.78 4.734-6.587 4.876 12.38-3.932-12.33 8.967 3.942 4.83-3.352 2.839 3.601 1.907 3.055 3.886 8.522-4.893-0.0995 4.612 9.712 0.5959 5.183 6.838-23.37 0.5131-28 4.746 15.44 4.321-15.96 4.258-2.165 8.562 7.292-0.5082 14.57-5.012 6.663 4.173 6.649-1.327 8.222-0.2286 10.63 4.991 7.292-6.64 6.256-2.418 6.228 2.839 5.902-2.631 15.06-15.73 8.594-2.687 2.818 0.5241 8.732-5.844 3.901 1.718-12.12 4.777-24.2-2.162-29.56 2.814 3.857 3.886-16.76 2.434-3.079 5.123-3.595 3.052-16.28 10.51-1.64 6.221 11.15-5.159-6.043 7.333 5.633 3.768-5.126 8.261 8.401-2.733 6.679 2.857 0.6386 2.672 6.27-4.272 6.974 1.82 5.712-4.465 18.4-2.193 4.682-7e-3 -10.61 0.7096-7.449 7.656 1.301 3.335-10.19 8.635-0.4513 6.727 6.495 3.453-7.26 7.755 4.76 7.662 6.048 6.805 4.772 6.469 12.58-11.03 9.968 2.317 7.441-3.902 7.588-7.166 11.29 0.5171 4.986-2.674 8.515-1.884 11.93-7.271 5.791 7.996 10.91-14.5 10.49-3.175 5.836-3.628 5.141-5.663 8.239-6.144 2.719-13.6 10.17 9.216 3.791 15-8.747 10.38 4.834 6.355 11.1 7.102 11.36 2.576 12.39-3.326 8.253-13.26-2.284-13.38 7.951 6.338 6.504-2.529 4.357 10.49 16.51 7.471 19.85 8.204 7.906 0.4455 14 0.0528 12.12-6.179 4.994 4.052 7.117 1.157 5.521-0.4226 5.509 1.966 10.02 5.362 13.72 6.816 0.8348-4.748 10.39 2.367 6.902-7.133-3.257-8.01 11.3 12.17 10.87-0.045 2.562 3.02 13.51 7.303 7.119 0.1045 11.46 0.2189-7.661-10.29 5.603-3.93 3.49 3.381 10.39 2.442 3.386-1.172 7.466 0.6736 14.17-4.43 3.083-3.747-5.764 0.2393-30.03-6.232-14.85-6.638-3.796-3.852 9.875-1.385 4.161-5.747 17.15 1.556-2.806-4.306 4.848-3.915 7.812-0.4178-5.758-6.311 5.25-3.719 14.83 1.947-12.4-6.648 5.129-4.503 4.604-2.978-21.82-2.887-5.286-6.091 9.698-1.012 11.28-7.564 0.3323-3.647-10.09 3.444-4.173 0.1863-2.144-4.613-13.77 9.375-29.88 5.711-43.27-2.563-7.325-3.092-14.92-10.73-4.267-4.114 2.684-4.005 10.2 9.012 6.988-2.369 5.83 1.824 11.82 7.916 10.67 0.1498 6.397 1.121 8.223-3.628 14.32 3.812-5.039-6.405-2.536-10.85 7.597-9.257 3.914-3.336 20 1.975 7.052-4.743-15.61-4.159 23.89 1.871 6.741-4.588-12.17 1.79 7.406-4.789-4.618-3.93-7.507 1.006-14.9 1.694-15.45-3.584-13.59 4.717-28.78-1.956-40.35-8.68 3.293-6.452 23.93 7.107 24.96-1.061 2.306 1.815 11.87 4.81 17.14-1.525-2.835-1.209 12.34-3.813 17.42-6.725 8.439-0.2981-11.62-9.519 4.065-9.831 11-6.391-22.98 3.675-18.43-4.346-9.121 0.9682-29.32-3.792-13.05-7.761 11.32 5.826 5.661 0.2388 6.139-1.585 7.631 0.1589 8.662-1.005 1.065-3.787 7.644 2.078 22.33-14.84 5.667-8.096-6.197 1.665-5.157-6.374-13.51-0.6066-6.811 0.8801-29-6.458-11.74-8.214 5.599 5.931 12.78-6e-3 10.67-1.688 8.399 3.427 6.951-11.04 8.499-13.8-7.361 1.812-23.03 8.911-24.97-1.095 9.476 2.979 7.53-0.8735 5.125-4.562 9.057 0.1586 0.611-2.47 6.939-6.676-9.14 3.299-27.29 3.054-31.6-1.386 0.7136-5.639 14.81 2.985 16.17-5.236-13.36-9.579 8.046 1.926 7.221-7.511 10.97-1.306 2.068-4.506 5.768-4.035 9.974-2.821-4.349-8.529-6.73-8.139-8.449 1.656-11.73 3.291-4.362-3.358-5.65 1.491-5.305 1.304-4.633-2.804-6.899 10.5-31.7 4.137-29.65-4.541 9.082 8.336 11.33-4.044 19.39 2.914-1.023-7.213 16.6 1.215 13.42-7.761 0.5673-3.36 5.222-5.879 10.91-10.31-11.8-1.654-10.65-7.895-22.78-2.719-7.294 2.795 4.377-11.51-6.512-3.85-8.565 5.409-30.73-7.604-27.99-8.681 1.976-4.189 11.1 6.846 11.69-1.437 6.058 9.049 7.588-4.47 9.281 3.469 9.207 4.163 6.965-8.035 13.78-5.259-0.5484-2.62-0.9873-5.36 0.1433-7.012 6.086 7.089 10.08-4.539 14.65-5.785-6.469 0.8827-8.828-1.183-9.443-2.954-6.878 5.997-9.95 2.739-7.516-2.552-7.079 11.52-31.33 4.42-30.11-4.157 7.48 6.197 6.24-2.456 13.44 4.656 2.333-5.058 3.017-8.339 9.993-2.339 7.956 0.7534-9.002-10.88 2.829-4.258 8.081 4.99 0.8364-3.805 9.625-3.875-8.926-2.081 16.22-4.196 0.9587-6.529-5.859-5.771-17.45 5.929-17.75-4.909-6.536 2.999-4.739-6.027-11.88 2.034-6.082 3.665-12.88 0.1775-9.701-4.9-8.267 4.617-16.37-9.987-12.02-11.84-2.303 6.319 7.82 15.2 7.263 4.056 2.532 9.085 8.691 5.78 8.41 2.187 2.835-2.971 10.6 12.26 11.76 0.1228 5.937 6.347 19.92-2.869 7.07-6.968-9.316-2.919-11.08-7.81-18.79-5.486 3.784-2.856 4.41-4.364 8.971-7.921-11.67 0.0066-10.1-6.504-2.25-5.344 7.053-3.623 6.365-5.945-0.153-8.926 5.515-3.475 8.134-9.173-1.066-7.605 8.023-10.12 0.6955-6.739-5.125-3.688-5.526-5.302-13.85 25.63-18.75 12.86-2.482-7.507 0.6418-21.89 6.106-12.34 5.007-3.267 12.96-2.67 2.677-8.735-12.02-3.707 20.58 1.203 4.709-5.983-4.971-0.05061 11.69-10.75-1.875-4.94-6.676 7.352-3.984-7.346-9.343 4.668-7.182 13.5-3.306-10.12 4.016-13.05 3.869-11.84-10.64 10.29-7.82-3.228 0.925-3.877-1.106-7.012-3.844-9.438zm-6.781 35.09c8.045 3.299 5.493 18.84 2.399 4.966-0.4997-1.503-3.158-3.249-2.399-4.966zm-2.438 14.69c8.123 1.837 10.44 12.88 1.447 3.98-0.4489-0.5219-3.59-3.775-1.447-3.98zm27.31 8.156c5.771 5.148-21.76 12.37-7.844 5.25 3.976 1.181 5.133-3.871 7.844-5.25zm-11.59 14.31c7.15 1.135 13.48 4.683 2.406 2.094-0.802-0.6978-1.604-1.396-2.406-2.094zm10.97 2.469c9.128-0.4755-2.472 8.106 0 0zm15.06 3.656c3.589 2.268-4.8 1.932 0 0zm-23.53 16c4.137 10.32-3.254 15.64 0 0zm-7.625 13.34c2.97 2.001-4.321 2.134 0 0zm8.062 2.125c1.009 5.808-1.047 3.332 0 0zm-12.44 0.5312c3.161 1.484-3.435 2.267 0 0zm-5 2c3.161 1.484-3.435 2.267 0 0zm-20.81 0.0312c6.335 6.643 15.4-1.646 17 3.009-4.443 2.469-21.31 6.253-17-3.009zm91.75 52.97c3.593 2.085-2.199 2.73 0 0zm-83.59 12c-4.987 5.489-12.9 3.653-1.927 0.4596zm86.34 42.72c11.21 1.465-11.68 1.361 0 0zm22.38 5.406c8.104 0.061-4.474 1.186 0 0zm0.25 24.91c6.221 0.9943 1.787 3.334 0 0zm-174.2 40.41c2.281 2.168-5.914 1.819 0 0zm16.16 8.594c4.4 9.201 7.926-2.761 12.16 2.812 2.626 3.355 13.34-2.386 1.735 2.791-4.99 0.4878-23.24 2.592-13.89-5.604zm23.25 1.094c3.396 1.405-6.059 1.64 0 0zm-10.16 41.22c2.97 2.001-4.321 2.134 0 0z"/>
 </g>
</svg>
